# xmcd
#
# Track frame offsets:
#	150
#	12957
#	28302
#	47447
#	61257
#	75752
#	87695
#	101050
#	114755
#	130242
#	144860
#
# Disc length: 2137 seconds
#
# Revision: 1
# Processed by: cddbd v1.5.1PL0 Copyright (c) Steve Scherf et al.
# Submitted via: audiograbber 1.83.01
#
DISCID=8108570b
DTITLE=Don COX - Each One's A Winner
DYEAR=1996
DGENRE=Country
TTITLE0=I Never Met A Woman I Didn't Like
TTITLE1=Besides You
TTITLE2=Man Overboard
TTITLE3=It's My Lucky Day
TTITLE4=Mary's Go Round
TTITLE5=Did He Say It Better Than Me
TTITLE6=Gentlemen Start Your Engines
TTITLE7=Cox, Don - The Shadow Knows
TTITLE8=The Reins Are In Your Hands
TTITLE9=The Time Of Her Life
TTITLE10=Sweet Sweet Woman
EXTD=
EXTT0=
EXTT1=
EXTT2=
EXTT3=
EXTT4=
EXTT5=
EXTT6=
EXTT7=
EXTT8=
EXTT9=
EXTT10=
PLAYORDER=
